<svg width="21" height="20" viewBox="0 0 21 20" fill="none" xmlns="http://www.w3.org/2000/svg">
<path fill-rule="evenodd" clip-rule="evenodd" d="M10.5001 2.91666C6.59425 2.91666 3.41675 6.09416 3.41675 9.99999C3.41675 13.9058 6.59425 17.0833 10.5001 17.0833C14.4059 17.0833 17.5834 13.9058 17.5834 9.99999C17.5834 6.09416 14.4059 2.91666 10.5001 2.91666ZM10.5001 18.3333C5.90508 18.3333 2.16675 14.595 2.16675 9.99999C2.16675 5.40499 5.90508 1.66666 10.5001 1.66666C15.0951 1.66666 18.8334 5.40499 18.8334 9.99999C18.8334 14.595 15.0951 18.3333 10.5001 18.3333Z" fill="#2F80ED"/>
<path fill-rule="evenodd" clip-rule="evenodd" d="M13.3594 13.077C13.2503 13.077 13.1403 13.0486 13.0394 12.9895L9.89777 11.1153C9.70944 11.002 9.59277 10.7978 9.59277 10.5778V6.53781C9.59277 6.19281 9.87277 5.91281 10.2178 5.91281C10.5636 5.91281 10.8428 6.19281 10.8428 6.53781V10.2228L13.6803 11.9145C13.9761 12.092 14.0736 12.4753 13.8969 12.772C13.7794 12.9678 13.5719 13.077 13.3594 13.077Z" fill="#2F80ED"/>
</svg>
