<svg width="21" height="20" viewBox="0 0 21 20" fill="none" xmlns="http://www.w3.org/2000/svg">
<path fill-rule="evenodd" clip-rule="evenodd" d="M10.7086 7.08334C9.90441 7.08334 9.25024 7.73751 9.25024 8.54251C9.25024 9.34668 9.90441 10 10.7086 10C11.5127 10 12.1669 9.34668 12.1669 8.54251C12.1669 7.73751 11.5127 7.08334 10.7086 7.08334ZM10.7086 11.25C9.21524 11.25 8.00024 10.0358 8.00024 8.54251C8.00024 7.04834 9.21524 5.83334 10.7086 5.83334C12.2019 5.83334 13.4169 7.04834 13.4169 8.54251C13.4169 10.0358 12.2019 11.25 10.7086 11.25Z" fill="#2F80ED"/>
<mask id="mask0_201_5932" style="mask-type:luminance" maskUnits="userSpaceOnUse" x="3" y="1" width="15" height="17">
<path fill-rule="evenodd" clip-rule="evenodd" d="M3.83325 1.66667H17.5828V17.9167H3.83325V1.66667Z" fill="white"/>
</mask>
<g mask="url(#mask0_201_5932)">
<path fill-rule="evenodd" clip-rule="evenodd" d="M10.7078 2.91667C7.6061 2.91667 5.08276 5.46417 5.08276 8.59417C5.08276 12.5767 9.76943 16.4567 10.7078 16.6633C11.6461 16.4558 16.3328 12.5758 16.3328 8.59417C16.3328 5.46417 13.8094 2.91667 10.7078 2.91667ZM10.7078 17.9167C9.21276 17.9167 3.83276 13.29 3.83276 8.59417C3.83276 4.77417 6.91693 1.66667 10.7078 1.66667C14.4986 1.66667 17.5828 4.77417 17.5828 8.59417C17.5828 13.29 12.2028 17.9167 10.7078 17.9167Z" fill="#2F80ED"/>
</g>
</svg>
