<svg width="41" height="40" viewBox="0 0 41 40" fill="none" xmlns="http://www.w3.org/2000/svg">
<rect x="1" y="0.5" width="39" height="39" rx="19.5" stroke="#2F80ED"/>
<g clip-path="url(#clip0_201_5951)">
<path d="M27.9853 16.91C27.9502 16.113 27.8213 15.5651 27.6367 15.0903C27.4462 14.5863 27.1532 14.1351 26.7693 13.76C26.3942 13.3791 25.94 13.0831 25.4418 12.8956C24.9643 12.711 24.4192 12.5821 23.6222 12.5469C22.8193 12.5088 22.5644 12.5 20.5278 12.5C18.4913 12.5 18.2364 12.5088 17.4364 12.544C16.6394 12.5791 16.0915 12.7081 15.6168 12.8926C15.1127 13.0831 14.6615 13.3761 14.2864 13.76C13.9054 14.1351 13.6096 14.5893 13.422 15.0874C13.2373 15.5651 13.1084 16.1101 13.0733 16.9071C13.0352 17.71 13.0264 17.9649 13.0264 20.0015C13.0264 22.038 13.0352 22.2929 13.0703 23.0929C13.1055 23.8899 13.2345 24.4378 13.4191 24.9126C13.6096 25.4166 13.9054 25.8678 14.2864 26.2429C14.6615 26.6239 15.1157 26.9199 15.6138 27.1073C16.0915 27.292 16.6364 27.4209 17.4335 27.456C18.2334 27.4913 18.4884 27.5 20.525 27.5C22.5615 27.5 22.8164 27.4913 23.6164 27.456C24.4134 27.4209 24.9613 27.292 25.436 27.1073C26.4441 26.7176 27.2411 25.9206 27.6308 24.9126C27.8153 24.435 27.9443 23.8899 27.9795 23.0929C28.0146 22.2929 28.0234 22.038 28.0234 20.0015C28.0234 17.9649 28.0205 17.71 27.9853 16.91ZM26.6345 23.0343C26.6023 23.7669 26.4792 24.1624 26.3767 24.4262C26.1246 25.0796 25.606 25.5983 24.9525 25.8503C24.6888 25.9529 24.2903 26.0759 23.5606 26.1081C22.7695 26.1433 22.5322 26.152 20.5308 26.152C18.5294 26.152 18.2892 26.1433 17.5008 26.1081C16.7683 26.0759 16.3727 25.9529 16.109 25.8503C15.7838 25.7301 15.4878 25.5397 15.2475 25.2906C14.9985 25.0474 14.808 24.7543 14.6878 24.4291C14.5852 24.1654 14.4622 23.7669 14.43 23.0373C14.3948 22.2461 14.3861 22.0087 14.3861 20.0073C14.3861 18.0059 14.3948 17.7657 14.43 16.9775C14.4622 16.2449 14.5852 15.8493 14.6878 15.5856C14.808 15.2603 14.9985 14.9644 15.2505 14.724C15.4936 14.4749 15.7866 14.2845 16.1119 14.1644C16.3757 14.0619 16.7742 13.9388 17.5038 13.9065C18.295 13.8714 18.5324 13.8626 20.5337 13.8626C22.538 13.8626 22.7753 13.8714 23.5636 13.9065C24.2962 13.9388 24.6918 14.0619 24.9555 14.1644C25.2807 14.2845 25.5767 14.4749 25.8169 14.724C26.066 14.9673 26.2565 15.2603 26.3767 15.5856C26.4792 15.8493 26.6023 16.2478 26.6345 16.9775C26.6697 17.7686 26.6785 18.0059 26.6785 20.0073C26.6785 22.0087 26.6697 22.2431 26.6345 23.0343Z" fill="#2F80ED"/>
<path d="M20.5279 16.1482C18.4006 16.1482 16.6746 17.874 16.6746 20.0015C16.6746 22.1289 18.4006 23.8547 20.5279 23.8547C22.6553 23.8547 24.3811 22.1289 24.3811 20.0015C24.3811 17.874 22.6553 16.1482 20.5279 16.1482ZM20.5279 22.501C19.1478 22.501 18.0283 21.3817 18.0283 20.0015C18.0283 18.6213 19.1478 17.5019 20.5279 17.5019C21.9081 17.5019 23.0274 18.6213 23.0274 20.0015C23.0274 21.3817 21.9081 22.501 20.5279 22.501Z" fill="#2F80ED"/>
<path d="M25.433 15.9958C25.433 16.4926 25.0302 16.8954 24.5334 16.8954C24.0366 16.8954 23.6338 16.4926 23.6338 15.9958C23.6338 15.4989 24.0366 15.0963 24.5334 15.0963C25.0302 15.0963 25.433 15.4989 25.433 15.9958Z" fill="#2F80ED"/>
</g>
<defs>
<clipPath id="clip0_201_5951">
<rect width="15" height="15" fill="white" transform="translate(13 12.5)"/>
</clipPath>
</defs>
</svg>
