<svg width="48" height="48" viewBox="0 0 48 48" fill="none" xmlns="http://www.w3.org/2000/svg">
<rect x="0.5" y="0.5" width="47" height="47" rx="23.5" stroke="white"/>
<g clip-path="url(#clip0_201_6016)">
<path d="M32.9822 20.292C32.9401 19.3356 32.7854 18.6781 32.5639 18.1084C32.3353 17.5036 31.9837 16.9621 31.523 16.512C31.0729 16.0549 30.5278 15.6997 29.9301 15.4747C29.357 15.2531 28.7029 15.0985 27.7465 15.0563C26.783 15.0106 26.4771 15 24.0332 15C21.5894 15 21.2835 15.0106 20.3235 15.0527C19.3671 15.0949 18.7096 15.2497 18.14 15.4711C17.5351 15.6997 16.9936 16.0513 16.5435 16.512C16.0864 16.9621 15.7313 17.5072 15.5062 18.1049C15.2846 18.6781 15.13 19.3321 15.0878 20.2885C15.0421 21.252 15.0315 21.5579 15.0315 24.0018C15.0315 26.4456 15.0421 26.7515 15.0842 27.7115C15.1264 28.6679 15.2812 29.3254 15.5028 29.8952C15.7313 30.4999 16.0864 31.0414 16.5435 31.4915C16.9936 31.9486 17.5386 32.3038 18.1364 32.5288C18.7096 32.7504 19.3636 32.905 20.3201 32.9472C21.2799 32.9895 21.586 32.9999 24.0298 32.9999C26.4736 32.9999 26.7795 32.9895 27.7395 32.9472C28.6959 32.905 29.3534 32.7504 29.9231 32.5288C31.1327 32.0611 32.0892 31.1047 32.5569 29.8952C32.7783 29.322 32.9331 28.6679 32.9752 27.7115C33.0174 26.7515 33.028 26.4456 33.028 24.0018C33.028 21.5579 33.0244 21.252 32.9822 20.292ZM31.3613 27.6411C31.3226 28.5202 31.1749 28.9949 31.0518 29.3114C30.7494 30.0956 30.127 30.7179 29.3429 31.0204C29.0264 31.1434 28.5483 31.2911 27.6726 31.3297C26.7232 31.372 26.4385 31.3824 24.0368 31.3824C21.6351 31.3824 21.3468 31.372 20.4009 31.3297C19.5218 31.2911 19.0471 31.1434 18.7306 31.0204C18.3404 30.8761 17.9852 30.6476 17.6969 30.3487C17.398 30.0568 17.1694 29.7052 17.0252 29.315C16.9021 28.9985 16.7545 28.5202 16.7159 27.6447C16.6736 26.6953 16.6631 26.4104 16.6631 24.0088C16.6631 21.6071 16.6736 21.3188 16.7159 20.373C16.7545 19.4939 16.9021 19.0192 17.0252 18.7027C17.1694 18.3123 17.398 17.9573 17.7005 17.6688C17.9922 17.3699 18.3438 17.1414 18.7342 16.9973C19.0507 16.8742 19.5289 16.7266 20.4044 16.6878C21.3538 16.6457 21.6387 16.6351 24.0402 16.6351C26.4455 16.6351 26.7302 16.6457 27.6762 16.6878C28.5553 16.7266 29.03 16.8742 29.3464 16.9973C29.7367 17.1414 30.0919 17.3699 30.3802 17.6688C30.6791 17.9607 30.9076 18.3123 31.0518 18.7027C31.1749 19.0192 31.3226 19.4973 31.3613 20.373C31.4035 21.3224 31.4141 21.6071 31.4141 24.0088C31.4141 26.4104 31.4035 26.6917 31.3613 27.6411Z" fill="white"/>
<path d="M24.0334 19.3778C21.4806 19.3778 19.4094 21.4489 19.4094 24.0018C19.4094 26.5547 21.4806 28.6257 24.0334 28.6257C26.5863 28.6257 28.6573 26.5547 28.6573 24.0018C28.6573 21.4489 26.5863 19.3778 24.0334 19.3778ZM24.0334 27.0012C22.3773 27.0012 21.0339 25.658 21.0339 24.0018C21.0339 22.3455 22.3773 21.0023 24.0334 21.0023C25.6896 21.0023 27.0328 22.3455 27.0328 24.0018C27.0328 25.658 25.6896 27.0012 24.0334 27.0012Z" fill="white"/>
<path d="M29.9199 19.195C29.9199 19.7911 29.4365 20.2744 28.8402 20.2744C28.2441 20.2744 27.7607 19.7911 27.7607 19.195C27.7607 18.5987 28.2441 18.1155 28.8402 18.1155C29.4365 18.1155 29.9199 18.5987 29.9199 19.195Z" fill="white"/>
</g>
<defs>
<clipPath id="clip0_201_6016">
<rect width="18" height="18" fill="white" transform="translate(15 15)"/>
</clipPath>
</defs>
</svg>
