<svg width="15" height="17" viewBox="0 0 15 17" fill="none" xmlns="http://www.w3.org/2000/svg">
<path fill-rule="evenodd" clip-rule="evenodd" d="M7.20858 6.08325C6.40441 6.08325 5.75024 6.73742 5.75024 7.54242C5.75024 8.34659 6.40441 8.99992 7.20858 8.99992C8.01274 8.99992 8.66691 8.34659 8.66691 7.54242C8.66691 6.73742 8.01274 6.08325 7.20858 6.08325ZM7.20858 10.2499C5.71524 10.2499 4.50024 9.03575 4.50024 7.54242C4.50024 6.04825 5.71524 4.83325 7.20858 4.83325C8.70191 4.83325 9.91691 6.04825 9.91691 7.54242C9.91691 9.03575 8.70191 10.2499 7.20858 10.2499Z" fill="white"/>
<mask id="mask0_6031_662" style="mask-type:luminance" maskUnits="userSpaceOnUse" x="0" y="0" width="15" height="17">
<path fill-rule="evenodd" clip-rule="evenodd" d="M0.333252 0.666626H14.0828V16.9166H0.333252V0.666626Z" fill="white"/>
</mask>
<g mask="url(#mask0_6031_662)">
<path fill-rule="evenodd" clip-rule="evenodd" d="M7.20776 1.91663C4.1061 1.91663 1.58276 4.46413 1.58276 7.59413C1.58276 11.5766 6.26943 15.4566 7.20776 15.6633C8.1461 15.4558 12.8328 11.5758 12.8328 7.59413C12.8328 4.46413 10.3094 1.91663 7.20776 1.91663ZM7.20776 16.9166C5.71276 16.9166 0.332764 12.29 0.332764 7.59413C0.332764 3.77413 3.41693 0.666626 7.20776 0.666626C10.9986 0.666626 14.0828 3.77413 14.0828 7.59413C14.0828 12.29 8.70276 16.9166 7.20776 16.9166Z" fill="white"/>
</g>
</svg>
