<svg width="184" height="45" viewBox="0 0 184 45" fill="none" xmlns="http://www.w3.org/2000/svg">
<path fill-rule="evenodd" clip-rule="evenodd" d="M0 0H10.25V2.5H2.5V20.25H0V0Z" fill="#3D7DBD"/>
<path fill-rule="evenodd" clip-rule="evenodd" d="M43.25 39V44.25H28V41.75H40.75V39H43.25Z" fill="#3D7DBD"/>
<path fill-rule="evenodd" clip-rule="evenodd" d="M23.5 24.5H2.5V41.5H23.5V24.5ZM0 22V44H26V22H0Z" fill="#154F7D"/>
<path fill-rule="evenodd" clip-rule="evenodd" d="M40.5 2.5H14.5V34.5H40.5V2.5ZM12 0V37H43V0H12Z" fill="#3D7DBD"/>
<path d="M59.8799 4.79977C62.2025 4.79977 64.0225 5.35444 65.3399 6.46377C66.6572 7.57311 67.3159 9.09844 67.3159 11.0398C67.3159 12.9811 66.6572 14.5064 65.3399 15.6158C64.0225 16.7078 62.2025 17.2538 59.8799 17.2538H54.9919V22.9998H53.0679V4.79977H59.8799ZM59.8279 15.5638C61.6305 15.5638 63.0085 15.1738 63.9619 14.3938C64.9152 13.5964 65.3919 12.4784 65.3919 11.0398C65.3919 9.56644 64.9152 8.43977 63.9619 7.65977C63.0085 6.86244 61.6305 6.46377 59.8279 6.46377H54.9919V15.5638H59.8279Z" fill="black"/>
<path d="M74.89 9.21977C76.6753 9.21977 78.0447 9.67044 78.998 10.5718C79.9513 11.4558 80.428 12.7731 80.428 14.5238V22.9998H78.66V20.8678C78.244 21.5784 77.6287 22.1331 76.814 22.5318C76.0167 22.9304 75.0633 23.1298 73.954 23.1298C72.4287 23.1298 71.2153 22.7658 70.314 22.0378C69.4127 21.3098 68.962 20.3478 68.962 19.1518C68.962 17.9904 69.378 17.0544 70.21 16.3438C71.0593 15.6331 72.4027 15.2778 74.24 15.2778H78.582V14.4458C78.582 13.2671 78.2527 12.3744 77.594 11.7678C76.9353 11.1438 75.9733 10.8318 74.708 10.8318C73.8413 10.8318 73.0093 10.9791 72.212 11.2738C71.4147 11.5511 70.73 11.9411 70.158 12.4438L69.326 11.0658C70.0193 10.4764 70.8513 10.0258 71.822 9.71377C72.7927 9.38444 73.8153 9.21977 74.89 9.21977ZM74.24 21.6738C75.28 21.6738 76.1727 21.4398 76.918 20.9718C77.6633 20.4864 78.218 19.7931 78.582 18.8918V16.6558H74.292C71.952 16.6558 70.782 17.4704 70.782 19.0998C70.782 19.8971 71.0853 20.5298 71.692 20.9978C72.2987 21.4484 73.148 21.6738 74.24 21.6738Z" fill="black"/>
<path d="M84.8222 9.32377H86.6682V20.1918L95.7942 9.32377H97.4322V22.9998H95.5862V12.1318L86.4862 22.9998H84.8222V9.32377ZM91.0362 7.34777C89.8575 7.34777 88.9215 7.05311 88.2282 6.46377C87.5349 5.87444 87.1795 5.04244 87.1622 3.96777H88.4882C88.5055 4.64377 88.7482 5.18977 89.2162 5.60577C89.6842 6.00444 90.2909 6.20377 91.0362 6.20377C91.7815 6.20377 92.3882 6.00444 92.8562 5.60577C93.3415 5.18977 93.5929 4.64377 93.6102 3.96777H94.9362C94.9189 5.04244 94.5549 5.87444 93.8442 6.46377C93.1509 7.05311 92.2149 7.34777 91.0362 7.34777Z" fill="black"/>
<path d="M111.823 10.9618H106.649V22.9998H104.803V10.9618H99.6286V9.32377H111.823V10.9618Z" fill="black"/>
<path d="M128.68 23.1558C126.878 23.1558 125.24 22.7571 123.766 21.9598C122.31 21.1451 121.166 20.0358 120.334 18.6318C119.52 17.2278 119.112 15.6504 119.112 13.8998C119.112 12.1491 119.52 10.5718 120.334 9.16777C121.166 7.76377 122.31 6.66311 123.766 5.86577C125.24 5.05111 126.878 4.64377 128.68 4.64377C130.483 4.64377 132.104 5.04244 133.542 5.83977C134.998 6.63711 136.142 7.74644 136.974 9.16777C137.806 10.5718 138.222 12.1491 138.222 13.8998C138.222 15.6504 137.806 17.2364 136.974 18.6578C136.142 20.0618 134.998 21.1624 133.542 21.9598C132.104 22.7571 130.483 23.1558 128.68 23.1558ZM128.68 21.4398C130.119 21.4398 131.419 21.1191 132.58 20.4778C133.742 19.8191 134.652 18.9178 135.31 17.7738C135.969 16.6124 136.298 15.3211 136.298 13.8998C136.298 12.4784 135.969 11.1958 135.31 10.0518C134.652 8.89044 133.742 7.98911 132.58 7.34777C131.419 6.68911 130.119 6.35977 128.68 6.35977C127.242 6.35977 125.933 6.68911 124.754 7.34777C123.593 7.98911 122.674 8.89044 121.998 10.0518C121.34 11.1958 121.01 12.4784 121.01 13.8998C121.01 15.3211 121.34 16.6124 121.998 17.7738C122.674 18.9178 123.593 19.8191 124.754 20.4778C125.933 21.1191 127.242 21.4398 128.68 21.4398Z" fill="black"/>
<path d="M146.818 16.9158H143.698V22.9998H141.852V9.32377H143.698V15.3298H146.844L151.654 9.32377H153.656L148.274 15.9538L154.046 22.9998H151.862L146.818 16.9158Z" fill="black"/>
<path d="M156.439 9.32377H158.285V15.3818H166.891V9.32377H168.737V22.9998H166.891V16.9678H158.285V22.9998H156.439V9.32377Z" fill="black"/>
<path d="M178.17 9.21977C179.955 9.21977 181.325 9.67044 182.278 10.5718C183.231 11.4558 183.708 12.7731 183.708 14.5238V22.9998H181.94V20.8678C181.524 21.5784 180.909 22.1331 180.094 22.5318C179.297 22.9304 178.343 23.1298 177.234 23.1298C175.709 23.1298 174.495 22.7658 173.594 22.0378C172.693 21.3098 172.242 20.3478 172.242 19.1518C172.242 17.9904 172.658 17.0544 173.49 16.3438C174.339 15.6331 175.683 15.2778 177.52 15.2778H181.862V14.4458C181.862 13.2671 181.533 12.3744 180.874 11.7678C180.215 11.1438 179.253 10.8318 177.988 10.8318C177.121 10.8318 176.289 10.9791 175.492 11.2738C174.695 11.5511 174.01 11.9411 173.438 12.4438L172.606 11.0658C173.299 10.4764 174.131 10.0258 175.102 9.71377C176.073 9.38444 177.095 9.21977 178.17 9.21977ZM177.52 21.6738C178.56 21.6738 179.453 21.4398 180.198 20.9718C180.943 20.4864 181.498 19.7931 181.862 18.8918V16.6558H177.572C175.232 16.6558 174.062 17.4704 174.062 19.0998C174.062 19.8971 174.365 20.5298 174.972 20.9978C175.579 21.4484 176.428 21.6738 177.52 21.6738Z" fill="black"/>
<path d="M59.408 30.6999V36.9999H58.526V31.4829H54.872V36.9999H53.981V30.6999H59.408Z" fill="black"/>
<path d="M63.8296 30.6999C64.6456 30.6999 65.2876 30.8949 65.7556 31.2849C66.2236 31.6749 66.4576 32.2119 66.4576 32.8959C66.4576 33.5799 66.2236 34.1169 65.7556 34.5069C65.2876 34.8969 64.6456 35.0919 63.8296 35.0919H62.2726V36.9999H61.3726V30.6999H63.8296ZM63.8026 34.3089C64.3726 34.3089 64.8076 34.1889 65.1076 33.9489C65.4076 33.7029 65.5576 33.3519 65.5576 32.8959C65.5576 32.4399 65.4076 32.0919 65.1076 31.8519C64.8076 31.6059 64.3726 31.4829 63.8026 31.4829H62.2726V34.3089H63.8026Z" fill="black"/>
<path d="M71.4881 35.4249H68.1401L67.4471 36.9999H66.5201L69.3731 30.6999H70.2641L73.1261 36.9999H72.1811L71.4881 35.4249ZM71.1731 34.7049L69.8141 31.6179L68.4551 34.7049H71.1731Z" fill="black"/>
<path d="M78.1374 33.7329C78.5634 33.8349 78.8844 34.0179 79.1004 34.2819C79.3224 34.5399 79.4334 34.8729 79.4334 35.2809C79.4334 35.8269 79.2324 36.2499 78.8304 36.5499C78.4344 36.8499 77.8554 36.9999 77.0934 36.9999H74.2134V30.6999H76.9224C77.6124 30.6999 78.1494 30.8409 78.5334 31.1229C78.9234 31.3989 79.1184 31.7979 79.1184 32.3199C79.1184 32.6619 79.0314 32.9529 78.8574 33.1929C78.6894 33.4329 78.4494 33.6129 78.1374 33.7329ZM75.1044 33.4719H76.8594C77.2974 33.4719 77.6304 33.3849 77.8584 33.2109C78.0924 33.0369 78.2094 32.7819 78.2094 32.4459C78.2094 32.1099 78.0924 31.8549 77.8584 31.6809C77.6244 31.5009 77.2914 31.4109 76.8594 31.4109H75.1044V33.4719ZM77.0754 36.2889C78.0414 36.2889 78.5244 35.9289 78.5244 35.2089C78.5244 34.8489 78.4014 34.5849 78.1554 34.4169C77.9154 34.2429 77.5554 34.1559 77.0754 34.1559H75.1044V36.2889H77.0754Z" fill="black"/>
<path d="M80.937 30.6999H81.828V35.5599L85.554 30.6999H86.382V36.9999H85.5V32.1489L81.765 36.9999H80.937V30.6999Z" fill="black"/>
<path d="M93.4151 30.6999V36.9999H92.5331V31.4829H89.7431L89.6801 33.3279C89.6501 34.1979 89.5781 34.9029 89.4641 35.4429C89.3561 35.9829 89.1821 36.3909 88.9421 36.6669C88.7021 36.9369 88.3781 37.0719 87.9701 37.0719C87.7841 37.0719 87.5951 37.0479 87.4031 36.9999L87.4661 36.1989C87.5621 36.2229 87.6581 36.2349 87.7541 36.2349C88.0121 36.2349 88.2191 36.1329 88.3751 35.9289C88.5311 35.7189 88.6481 35.4069 88.7261 34.9929C88.8041 34.5789 88.8551 34.0329 88.8791 33.3549L88.9781 30.6999H93.4151Z" fill="black"/>
<path d="M98.1404 32.8959C98.8904 32.8959 99.4634 33.0639 99.8594 33.3999C100.261 33.7359 100.462 34.2309 100.462 34.8849C100.462 35.5749 100.246 36.0999 99.8144 36.4599C99.3884 36.8199 98.7764 36.9999 97.9784 36.9999H95.3774V30.6999H96.2684V32.8959H98.1404ZM97.9424 36.2889C98.4644 36.2889 98.8634 36.1719 99.1394 35.9379C99.4214 35.6979 99.5624 35.3529 99.5624 34.9029C99.5624 34.0389 99.0224 33.6069 97.9424 33.6069H96.2684V36.2889H97.9424Z" fill="black"/>
<path d="M107.211 30.6999V36.9999H106.311V34.1919H102.693V36.9999H101.793V30.6999H102.693V33.4089H106.311V30.6999H107.211Z" fill="black"/>
<path d="M111.939 32.8959C112.689 32.8959 113.262 33.0639 113.658 33.3999C114.06 33.7359 114.261 34.2309 114.261 34.8849C114.261 35.5749 114.045 36.0999 113.613 36.4599C113.187 36.8199 112.575 36.9999 111.777 36.9999H109.176V30.6999H110.067V32.8959H111.939ZM111.741 36.2889C112.263 36.2889 112.662 36.1719 112.938 35.9379C113.22 35.6979 113.361 35.3529 113.361 34.9029C113.361 34.0389 112.821 33.6069 111.741 33.6069H110.067V36.2889H111.741ZM115.26 30.6999H116.151V36.9999H115.26V30.6999Z" fill="black"/>
<path d="M118.115 30.6999H119.006V35.5599L122.732 30.6999H123.56V36.9999H122.678V32.1489L118.943 36.9999H118.115V30.6999ZM120.824 30.2589C120.332 30.2589 119.951 30.1539 119.681 29.9439C119.417 29.7279 119.282 29.4219 119.276 29.0259H119.915C119.921 29.2599 120.002 29.4429 120.158 29.5749C120.32 29.7009 120.542 29.7639 120.824 29.7639C121.094 29.7639 121.31 29.7009 121.472 29.5749C121.64 29.4429 121.727 29.2599 121.733 29.0259H122.363C122.357 29.4159 122.219 29.7189 121.949 29.9349C121.685 30.1509 121.31 30.2589 120.824 30.2589Z" fill="black"/>
<path d="M131.865 33.7329C132.291 33.8349 132.612 34.0179 132.828 34.2819C133.05 34.5399 133.161 34.8729 133.161 35.2809C133.161 35.8269 132.96 36.2499 132.558 36.5499C132.162 36.8499 131.583 36.9999 130.821 36.9999H127.941V30.6999H130.65C131.34 30.6999 131.877 30.8409 132.261 31.1229C132.651 31.3989 132.846 31.7979 132.846 32.3199C132.846 32.6619 132.759 32.9529 132.585 33.1929C132.417 33.4329 132.177 33.6129 131.865 33.7329ZM128.832 33.4719H130.587C131.025 33.4719 131.358 33.3849 131.586 33.2109C131.82 33.0369 131.937 32.7819 131.937 32.4459C131.937 32.1099 131.82 31.8549 131.586 31.6809C131.352 31.5009 131.019 31.4109 130.587 31.4109H128.832V33.4719ZM130.803 36.2889C131.769 36.2889 132.252 35.9289 132.252 35.2089C132.252 34.8489 132.129 34.5849 131.883 34.4169C131.643 34.2429 131.283 34.1559 130.803 34.1559H128.832V36.2889H130.803Z" fill="black"/>
<path d="M137.428 32.8959C138.178 32.8959 138.751 33.0639 139.147 33.3999C139.549 33.7359 139.75 34.2309 139.75 34.8849C139.75 35.5749 139.534 36.0999 139.102 36.4599C138.676 36.8199 138.064 36.9999 137.266 36.9999H134.665V30.6999H135.556V32.8959H137.428ZM137.23 36.2889C137.752 36.2889 138.151 36.1719 138.427 35.9379C138.709 35.6979 138.85 35.3529 138.85 34.9029C138.85 34.0389 138.31 33.6069 137.23 33.6069H135.556V36.2889H137.23ZM140.749 30.6999H141.64V36.9999H140.749V30.6999Z" fill="black"/>
<path d="M143.603 30.6999H148.355V31.4649H144.494V33.2649H146.456C147.206 33.2649 147.776 33.4209 148.166 33.7329C148.556 34.0449 148.751 34.4949 148.751 35.0829C148.751 35.7009 148.538 36.1749 148.112 36.5049C147.692 36.8349 147.089 36.9999 146.303 36.9999H143.603V30.6999ZM146.267 36.2889C146.783 36.2889 147.176 36.1899 147.446 35.9919C147.716 35.7939 147.851 35.5029 147.851 35.1189C147.851 34.3569 147.323 33.9759 146.267 33.9759H144.494V36.2889H146.267Z" fill="black"/>
<path d="M153.021 37.0719C152.385 37.0719 151.812 36.9339 151.302 36.6579C150.792 36.3759 150.39 35.9889 150.096 35.4969C149.808 35.0049 149.664 34.4559 149.664 33.8499C149.664 33.2439 149.808 32.6949 150.096 32.2029C150.39 31.7109 150.792 31.3269 151.302 31.0509C151.812 30.7689 152.385 30.6279 153.021 30.6279C153.651 30.6279 154.221 30.7689 154.731 31.0509C155.241 31.3269 155.64 31.7109 155.928 32.2029C156.216 32.6889 156.36 33.2379 156.36 33.8499C156.36 34.4619 156.216 35.0139 155.928 35.5059C155.64 35.9919 155.241 36.3759 154.731 36.6579C154.221 36.9339 153.651 37.0719 153.021 37.0719ZM153.021 36.2709C153.483 36.2709 153.897 36.1659 154.263 35.9559C154.635 35.7459 154.926 35.4579 155.136 35.0919C155.352 34.7199 155.46 34.3059 155.46 33.8499C155.46 33.3939 155.352 32.9829 155.136 32.6169C154.926 32.2449 154.635 31.9539 154.263 31.7439C153.897 31.5339 153.483 31.4289 153.021 31.4289C152.559 31.4289 152.139 31.5339 151.761 31.7439C151.389 31.9539 151.095 32.2449 150.879 32.6169C150.669 32.9829 150.564 33.3939 150.564 33.8499C150.564 34.3059 150.669 34.7199 150.879 35.0919C151.095 35.4579 151.389 35.7459 151.761 35.9559C152.139 36.1659 152.559 36.2709 153.021 36.2709Z" fill="black"/>
<path d="M160.272 30.6999C161.088 30.6999 161.73 30.8949 162.198 31.2849C162.666 31.6749 162.9 32.2119 162.9 32.8959C162.9 33.5799 162.666 34.1169 162.198 34.5069C161.73 34.8969 161.088 35.0919 160.272 35.0919H158.715V36.9999H157.815V30.6999H160.272ZM160.245 34.3089C160.815 34.3089 161.25 34.1889 161.55 33.9489C161.85 33.7029 162 33.3519 162 32.8959C162 32.4399 161.85 32.0919 161.55 31.8519C161.25 31.6059 160.815 31.4829 160.245 31.4829H158.715V34.3089H160.245Z" fill="black"/>
</svg>
