<svg width="19" height="17" viewBox="0 0 19 17" fill="none" xmlns="http://www.w3.org/2000/svg">
<path fill-rule="evenodd" clip-rule="evenodd" d="M9.31394 10.2207C8.75644 10.2207 8.20061 10.0365 7.73561 9.66815L3.99811 6.65482C3.72895 6.43815 3.68728 6.04398 3.90311 5.77565C4.12061 5.50815 4.51394 5.46565 4.78228 5.68148L8.51645 8.69148C8.98561 9.06315 9.64644 9.06315 10.1189 8.68815L13.8156 5.68315C14.0839 5.46398 14.4773 5.50565 14.6956 5.77398C14.9131 6.04148 14.8723 6.43482 14.6048 6.65315L10.9014 9.66315C10.4331 10.0348 9.87311 10.2207 9.31394 10.2207Z" fill="#2F80ED"/>
<mask id="mask0_6031_577" style="mask-type:luminance" maskUnits="userSpaceOnUse" x="0" y="0" width="19" height="17">
<path fill-rule="evenodd" clip-rule="evenodd" d="M0.333252 0.666656H18.2498V16.9167H0.333252V0.666656Z" fill="white"/>
</mask>
<g mask="url(#mask0_6031_577)">
<path fill-rule="evenodd" clip-rule="evenodd" d="M5.19909 15.6667H13.3824C13.3841 15.665 13.3908 15.6667 13.3958 15.6667C14.3466 15.6667 15.1899 15.3267 15.8366 14.6808C16.5874 13.9333 16.9999 12.8592 16.9999 11.6567V5.93332C16.9999 3.60582 15.4783 1.91666 13.3824 1.91666H5.20075C3.10492 1.91666 1.58325 3.60582 1.58325 5.93332V11.6567C1.58325 12.8592 1.99659 13.9333 2.74659 14.6808C3.39325 15.3267 4.23742 15.6667 5.18742 15.6667H5.19909ZM5.18492 16.9167C3.89909 16.9167 2.75075 16.45 1.86409 15.5667C0.876585 14.5817 0.333252 13.1933 0.333252 11.6567V5.93332C0.333252 2.93082 2.42575 0.666656 5.20075 0.666656H13.3824C16.1574 0.666656 18.2499 2.93082 18.2499 5.93332V11.6567C18.2499 13.1933 17.7066 14.5817 16.7191 15.5667C15.8333 16.4492 14.6841 16.9167 13.3958 16.9167H13.3824H5.20075H5.18492Z" fill="#2F80ED"/>
</g>
</svg>
