<svg width="20" height="20" viewBox="0 0 20 20" fill="none" xmlns="http://www.w3.org/2000/svg">
<mask id="mask0_201_6034" style="mask-type:luminance" maskUnits="userSpaceOnUse" x="11" y="1" width="9" height="8">
<path fill-rule="evenodd" clip-rule="evenodd" d="M11.9617 1.66699H19.0775V8.77767H11.9617V1.66699Z" fill="white"/>
</mask>
<g mask="url(#mask0_201_6034)">
<path fill-rule="evenodd" clip-rule="evenodd" d="M18.4523 8.77767C18.1381 8.77767 17.8681 8.54184 17.8323 8.22267C17.5164 5.40934 15.3314 3.226 12.5173 2.9135C12.1748 2.87517 11.9273 2.56684 11.9656 2.2235C12.0031 1.881 12.3089 1.6285 12.6556 1.67184C16.0539 2.04934 18.6931 4.68517 19.0739 8.08267C19.1123 8.426 18.8656 8.73517 18.5231 8.7735C18.4998 8.776 18.4756 8.77767 18.4523 8.77767Z" fill="white"/>
</g>
<path fill-rule="evenodd" clip-rule="evenodd" d="M15.5022 8.78659C15.2089 8.78659 14.948 8.57992 14.8897 8.28159C14.6497 7.04826 13.6989 6.09742 12.4672 5.85826C12.128 5.79242 11.9072 5.46492 11.973 5.12576C12.0389 4.78659 12.3722 4.56492 12.7055 4.63159C14.4397 4.96826 15.7789 6.30659 16.1164 8.04159C16.1822 8.38159 15.9614 8.70909 15.623 8.77492C15.5822 8.78242 15.5422 8.78659 15.5022 8.78659Z" fill="white"/>
<mask id="mask1_201_6034" style="mask-type:luminance" maskUnits="userSpaceOnUse" x="1" y="1" width="18" height="18">
<path fill-rule="evenodd" clip-rule="evenodd" d="M1.66699 1.66663H18.7505V18.7504H1.66699V1.66663Z" fill="white"/>
</mask>
<g mask="url(#mask1_201_6034)">
<path fill-rule="evenodd" clip-rule="evenodd" d="M3.6329 4.21791C3.63456 4.21791 3.5929 4.26124 3.5404 4.31291C3.33873 4.50874 2.92123 4.91624 2.91706 5.76874C2.9104 6.96124 3.69456 9.17541 7.4704 12.9504C11.2279 16.7071 13.4387 17.5004 14.6346 17.5004H14.6521C15.5046 17.4954 15.9112 17.0779 16.1071 16.8771C16.1662 16.8162 16.2146 16.7704 16.2487 16.7429C17.0796 15.9071 17.5046 15.2862 17.5004 14.8871C17.4954 14.4804 16.9896 14.0004 16.2904 13.3346C16.0679 13.1237 15.8262 12.8929 15.5712 12.6379C14.9096 11.9787 14.5837 12.0912 13.8629 12.3446C12.8671 12.6937 11.5029 13.1721 9.37706 11.0446C7.2504 8.91874 7.72706 7.55458 8.07456 6.55791C8.32623 5.83791 8.44123 5.51041 7.7804 4.84874C7.52206 4.59041 7.28956 4.34541 7.0754 4.12041C6.41373 3.42541 5.93623 2.92291 5.53206 2.91708H5.5254C5.12623 2.91708 4.50623 3.34374 3.62873 4.22124C3.63123 4.21874 3.63206 4.21791 3.6329 4.21791ZM14.6346 18.7504C12.5579 18.7504 9.8504 17.0971 6.58706 13.8346C3.3104 10.5587 1.65456 7.84291 1.66706 5.76208C1.67456 4.38708 2.3954 3.68291 2.66623 3.41874C2.6804 3.40124 2.72873 3.35374 2.7454 3.33708C3.94123 2.14124 4.7629 1.64958 5.5479 1.66708C6.47873 1.67958 7.14206 2.37708 7.98123 3.25958C8.18873 3.47708 8.4129 3.71458 8.66373 3.96458C9.87956 5.18124 9.53373 6.17374 9.25456 6.97041C8.95123 7.83958 8.68873 8.58958 10.2604 10.1612C11.8321 11.7329 12.5812 11.4704 13.4496 11.1646C14.2471 10.8862 15.2371 10.5379 16.4554 11.7546C16.7029 12.0021 16.9362 12.2237 17.1529 12.4296C18.0387 13.2729 18.7387 13.9387 18.7504 14.8721C18.7596 15.6671 18.2762 16.4787 17.0829 17.6721L16.5546 17.3137L17.0021 17.7496C16.7379 18.0204 16.0354 18.7421 14.6596 18.7504H14.6346Z" fill="white"/>
</g>
</svg>
