<svg width="54" height="54" viewBox="0 0 54 54" fill="none" xmlns="http://www.w3.org/2000/svg">
<path fill-rule="evenodd" clip-rule="evenodd" d="M27.0004 3.30566L48.4339 24.7391L27.0004 46.2062L5.56665 24.7394L27.0004 3.30566ZM14.1736 19.448H11.5615V22.0601L8.88247 24.7391L11.5615 27.4854V30.0306H14.1066L27.0004 42.8907L39.8603 30.0306H42.439V27.4185L45.1181 24.7394L42.439 22.0937V19.448H39.7936L27.0004 6.6212L14.1736 19.448Z" fill="#33348E"/>
<path fill-rule="evenodd" clip-rule="evenodd" d="M38.5209 19.4813H15.4463L27.0004 7.92725L38.5209 19.4813ZM42.439 26.1124V23.3998L43.812 24.7391L42.439 26.1124ZM15.379 29.9972H38.5878L27.0004 41.5847L15.379 29.9972ZM11.5615 23.3661V26.1794L10.1885 24.7391L11.5615 23.3661Z" fill="#33348E"/>
<path fill-rule="evenodd" clip-rule="evenodd" d="M6.6718 26.9832L4.4281 24.7392L27.0004 2.16723L49.5724 24.7395L47.3284 26.9835L49.5724 29.2272L27.0004 51.8328L4.4281 29.2272L6.6718 26.9832ZM48.7353 27.0168L50.979 29.2608L27.0004 53.2061L3.02148 29.2608L5.26518 27.0168L3.02148 24.7731L27.0004 0.793945L50.979 24.7728L48.7353 27.0168Z" fill="#33348E"/>
<path fill-rule="evenodd" clip-rule="evenodd" d="M27.0004 47.2448L46.7258 27.5527L48.4339 29.2269L27.0004 50.694L5.56665 29.2269L7.27471 27.5527L27.0004 47.2448Z" fill="#33348E"/>
<path fill-rule="evenodd" clip-rule="evenodd" d="M40.229 29.1936H37.5286L37.3788 28.0884H35.8789L35.729 29.1936H33.0286L34.8289 20.1179H38.1287L40.229 29.1936ZM37.2586 25.7105L36.5988 23.6007L35.9688 25.7105H37.2586ZM26.2883 29.1936V20.1179H28.7385V22.8306L30.0695 20.1179H32.7314L30.7953 24.572L32.8521 29.1936H30.3112L28.7385 26.347V29.1936H26.2883ZM20.7086 29.1936V20.1179H25.3268V22.261H23.3809V23.6677H25.1193V25.5432H23.3809V27.0168H25.4305V29.1936H20.7086ZM15.3161 29.1936L13.2957 20.1179H15.8374L16.8149 24.1366L18.0206 20.1179H20.5293L17.9878 29.1936H15.3161Z" fill="#33348E"/>
</svg>
