<svg width="48" height="48" viewBox="0 0 48 48" fill="none" xmlns="http://www.w3.org/2000/svg">
<rect x="0.5" y="0.5" width="47" height="47" rx="23.5" stroke="white"/>
<g clip-path="url(#clip0_201_6011)">
<path fill-rule="evenodd" clip-rule="evenodd" d="M30.4916 25.3837C31.0886 25.9666 31.7188 26.5151 32.2544 27.1568C32.4909 27.442 32.7149 27.7363 32.8862 28.0673C33.129 28.5377 32.9091 29.0554 32.4873 29.0835L29.865 29.0823C29.1886 29.1385 28.6491 28.8662 28.1954 28.4038C27.8324 28.034 27.4962 27.6404 27.147 27.2581C27.0039 27.1018 26.8541 26.9548 26.6752 26.8386C26.3172 26.6062 26.0065 26.6774 25.8019 27.0507C25.5935 27.4305 25.5463 27.851 25.5258 28.2742C25.4977 28.8917 25.3111 29.054 24.6908 29.0823C23.3653 29.1448 22.1072 28.9442 20.9385 28.2755C19.9082 27.686 19.1092 26.8538 18.4138 25.9116C17.0598 24.077 16.0228 22.0611 15.0909 19.9887C14.8811 19.5218 15.0345 19.2712 15.5497 19.2623C16.4052 19.2457 17.2605 19.2469 18.117 19.2611C18.4647 19.2662 18.6949 19.4656 18.8291 19.7941C19.292 20.9321 19.8583 22.0149 20.5691 23.0185C20.7585 23.2857 20.9515 23.5529 21.2264 23.7409C21.5305 23.9492 21.762 23.8802 21.9051 23.5414C21.9959 23.3266 22.0356 23.0952 22.0561 22.8652C22.1238 22.0737 22.1328 21.2836 22.0139 20.4949C21.9409 20.0027 21.6637 19.684 21.1725 19.5909C20.9219 19.5434 20.9592 19.4501 21.0805 19.3071C21.2913 19.0603 21.4896 18.9067 21.8847 18.9067H24.8483C25.3149 18.9988 25.4185 19.2084 25.4824 19.6779L25.4849 22.9698C25.4798 23.1515 25.5757 23.6909 25.903 23.8111C26.165 23.8968 26.3377 23.6872 26.4949 23.5211C27.2045 22.768 27.7109 21.878 28.1633 20.9564C28.3641 20.5511 28.5367 20.1303 28.704 19.7098C28.828 19.3978 29.0225 19.2443 29.374 19.2511L32.2263 19.2536C32.3108 19.2536 32.3964 19.2548 32.4783 19.2689C32.959 19.3508 33.0907 19.5575 32.9422 20.0269C32.7083 20.7632 32.2532 21.3769 31.8083 21.9933C31.3326 22.6515 30.8239 23.2872 30.3522 23.9492C29.9188 24.5538 29.9532 24.8586 30.4916 25.3837Z" fill="white"/>
</g>
<defs>
<clipPath id="clip0_201_6011">
<rect width="18" height="18" fill="white" transform="translate(15 15)"/>
</clipPath>
</defs>
</svg>
