<svg width="41" height="40" viewBox="0 0 41 40" fill="none" xmlns="http://www.w3.org/2000/svg">
<rect x="1" y="0.5" width="39" height="39" rx="19.5" stroke="#2F80ED"/>
<g clip-path="url(#clip0_201_5946)">
<path fill-rule="evenodd" clip-rule="evenodd" d="M25.9096 21.153C26.4072 21.6388 26.9324 22.0959 27.3786 22.6307C27.5758 22.8683 27.7624 23.1136 27.9052 23.3893C28.1075 23.7814 27.9243 24.2128 27.5727 24.2362L25.3875 24.2353C24.8239 24.282 24.3742 24.0551 23.9962 23.6698C23.6936 23.3616 23.4135 23.0336 23.1225 22.715C23.0033 22.5848 22.8784 22.4623 22.7293 22.3655C22.431 22.1718 22.1721 22.2311 22.0016 22.5423C21.828 22.8587 21.7886 23.2091 21.7715 23.5618C21.7481 24.0764 21.5926 24.2116 21.0757 24.2352C19.971 24.2873 18.9227 24.1202 17.9488 23.5629C17.0902 23.0717 16.4243 22.3781 15.8448 21.593C14.7165 20.0642 13.8524 18.3842 13.0758 16.6572C12.9009 16.2681 13.0288 16.0593 13.4581 16.0519C14.171 16.038 14.8838 16.039 15.5975 16.0509C15.8872 16.0551 16.0791 16.2213 16.1909 16.495C16.5766 17.4434 17.0486 18.3457 17.641 19.182C17.7987 19.4047 17.9596 19.6274 18.1886 19.7841C18.4421 19.9576 18.635 19.9001 18.7542 19.6178C18.8299 19.4388 18.863 19.246 18.88 19.0543C18.9365 18.3947 18.944 17.7363 18.8449 17.0791C18.7841 16.6689 18.5531 16.4033 18.1438 16.3257C17.9349 16.2861 17.966 16.2084 18.0671 16.0892C18.2428 15.8836 18.408 15.7556 18.7373 15.7556H21.2069C21.5957 15.8323 21.6821 16.007 21.7353 16.3982L21.7374 19.1415C21.7332 19.2929 21.8131 19.7423 22.0859 19.8426C22.3042 19.914 22.4481 19.7393 22.5791 19.6009C23.1704 18.9733 23.5924 18.2316 23.9694 17.4636C24.1368 17.1259 24.2806 16.7752 24.42 16.4248C24.5233 16.1648 24.6854 16.0368 24.9783 16.0425L27.3552 16.0446C27.4257 16.0446 27.497 16.0457 27.5653 16.0573C27.9658 16.1256 28.0756 16.2979 27.9519 16.689C27.7569 17.3027 27.3777 17.814 27.0069 18.3278C26.6105 18.8762 26.1866 19.4059 25.7935 19.9577C25.4323 20.4615 25.461 20.7155 25.9096 21.153Z" fill="#2F80ED"/>
</g>
<defs>
<clipPath id="clip0_201_5946">
<rect width="15" height="15" fill="white" transform="translate(13 12.5)"/>
</clipPath>
</defs>
</svg>
